<?xml version="1.0" encoding="utf-8"?>
<!-- Generator: Adobe Illustrator 16.0.0, SVG Export Plug-In . SVG Version: 6.00 Build 0)  -->
<!DOCTYPE svg PUBLIC "-//W3C//DTD SVG 1.1//EN" "http://www.w3.org/Graphics/SVG/1.1/DTD/svg11.dtd">
<svg version="1.1" id="Layer_1" xmlns="http://www.w3.org/2000/svg" xmlns:xlink="http://www.w3.org/1999/xlink" x="0px" y="0px"
	 width="24px" height="24px" viewBox="0 0 24 24" enable-background="new 0 0 24 24" xml:space="preserve">
<path fill="#F44336" d="M20.398,1.199H3.6c-1.308,0-2.4,1.08-2.4,2.4v16.799c0,1.326,1.075,2.4,2.4,2.4h16.8
	c1.33,0,2.399-1.081,2.399-2.4V3.6C22.8,2.274,21.725,1.199,20.398,1.199z"/>
<path fill="#FFFFFF" d="M15,15v-1.5c0-0.828-0.672-1.5-1.5-1.5c0.828,0,1.5-0.671,1.5-1.5V9c0-1.11-0.9-2-2-2H9v2h4v2h-2v2h2v2H9v2
	h4C14.104,17,15,16.104,15,15"/>
<path fill="#FFFFFF" d="M15,15v-1.5c0-0.828-0.672-1.5-1.5-1.5c0.828,0,1.5-0.671,1.5-1.5V9c0-1.11-0.9-2-2-2H9v2h4v2h-2v2h2v2H9v2
	h4C14.104,17,15,16.104,15,15"/>
</svg>
