<?xml version="1.0" encoding="utf-8"?>
<!-- Generator: Adobe Illustrator 16.0.0, SVG Export Plug-In . SVG Version: 6.00 Build 0)  -->
<!DOCTYPE svg PUBLIC "-//W3C//DTD SVG 1.1//EN" "http://www.w3.org/Graphics/SVG/1.1/DTD/svg11.dtd">
<svg version="1.1" id="Layer_1" xmlns="http://www.w3.org/2000/svg" xmlns:xlink="http://www.w3.org/1999/xlink" x="0px" y="0px"
	 width="24px" height="24px" viewBox="0 0 24 24" enable-background="new 0 0 24 24" xml:space="preserve">
<path d="M20.399,1.199c1.325,0,2.4,1.075,2.4,2.4v16.8c0,1.325-1.075,2.4-2.4,2.4H3.6c-1.325,0-2.4-1.075-2.4-2.4V3.6
	c0-1.325,1.075-2.4,2.4-2.4H20.399 M11,17h2c1.104,0,2-0.896,2-2v-1.5c0-0.828-0.672-1.5-1.5-1.5c0.828,0,1.5-0.671,1.5-1.5V9
	c0-1.11-0.9-2-2-2h-2C9.896,7,9,7.896,9,9v1.5c0,0.829,0.671,1.5,1.5,1.5C9.671,12,9,12.672,9,13.5V15C9,16.109,9.9,17,11,17 M11,13
	h2v2h-2V13 M11,9h2v2h-2V9z"/>
</svg>
