<?xml version="1.0" encoding="utf-8"?>
<!-- Generator: Adobe Illustrator 16.0.0, SVG Export Plug-In . SVG Version: 6.00 Build 0)  -->
<!DOCTYPE svg PUBLIC "-//W3C//DTD SVG 1.1//EN" "http://www.w3.org/Graphics/SVG/1.1/DTD/svg11.dtd">
<svg version="1.1" id="Layer_1" xmlns="http://www.w3.org/2000/svg" xmlns:xlink="http://www.w3.org/1999/xlink" x="0px" y="0px"
	 width="24px" height="24px" viewBox="0 0 24 24" enable-background="new 0 0 24 24" xml:space="preserve">
<path fill="#4CAF50" d="M20.398,1.162H3.6c-1.325,0-2.4,1.074-2.4,2.399v16.8c0,1.326,1.075,2.399,2.4,2.399h16.8
	c1.324,0,2.399-1.073,2.399-2.399v-16.8C22.8,2.236,21.725,1.162,20.398,1.162z"/>
<path fill="#FFFFFF" d="M15,15h-4v-2h2c1.104,0,2-0.896,2-2V9c0-1.11-0.9-2-2-2H9v2h4v2h-2c-1.104,0-2,0.896-2,2v4h6"/>
<path fill="#FFFFFF" d="M15,15h-4v-2h2c1.104,0,2-0.896,2-2V9c0-1.11-0.9-2-2-2H9v2h4v2h-2c-1.104,0-2,0.896-2,2v4h6"/>
</svg>
