<?xml version="1.0" encoding="utf-8"?>
<!-- Generator: Adobe Illustrator 16.0.0, SVG Export Plug-In . SVG Version: 6.00 Build 0)  -->
<!DOCTYPE svg PUBLIC "-//W3C//DTD SVG 1.1//EN" "http://www.w3.org/Graphics/SVG/1.1/DTD/svg11.dtd">
<svg version="1.1" id="Layer_1" xmlns="http://www.w3.org/2000/svg" xmlns:xlink="http://www.w3.org/1999/xlink" x="0px" y="0px"
	 width="24px" height="24px" viewBox="0 0 24 24" enable-background="new 0 0 24 24" xml:space="preserve">
<polygon fill="#D32F2F" points="5,21 7,21 7,17.064 5,19.364 "/>
<path fill="#D32F2F" d="M5,17.64V3.875C5,3.875,5.156,3,6,3s0.985,0.842,0.985,0.842L7,4.88C7,4.88,9,4,11,4
	s2.876,1.005,3.128,1.205s0.526,0.417,0.731,0.516s0.367,0.159,0.367,0.159l-5.456,6.225c0,0-0.833,0.063-1.458,0.583
	S7.104,13.813,7,14v1.339L5,17.64z"/>
<path fill="#D32F2F" d="M11.404,12l5.247-6.034c0,0,1.006-0.172,1.343-0.318s0.944-0.401,1.345-0.831S20,4,20,4v8
	c0,0-1.396,2.083-4,2s-3-1.354-3.75-1.646S11.404,12,11.404,12z"/>
</svg>
