<?xml version="1.0" encoding="utf-8"?>
<!-- Generator: Adobe Illustrator 16.0.0, SVG Export Plug-In . SVG Version: 6.00 Build 0)  -->
<!DOCTYPE svg PUBLIC "-//W3C//DTD SVG 1.1//EN" "http://www.w3.org/Graphics/SVG/1.1/DTD/svg11.dtd">
<svg version="1.1" id="Layer_1" xmlns="http://www.w3.org/2000/svg" xmlns:xlink="http://www.w3.org/1999/xlink" x="0px" y="0px"
	 width="24px" height="24px" viewBox="0 0 24 24" enable-background="new 0 0 24 24" xml:space="preserve">
<circle cx="11.931" cy="11.977" r="7.222"/>
<polygon points="11.354,2.908 12.646,2.908 13.108,5.955 10.8,5.955 "/>
<polygon points="2.91,12.6 2.91,11.306 5.956,10.846 5.956,13.152 "/>
<polygon points="21.091,11.4 21.091,12.691 18.045,13.152 18.045,10.847 "/>
<polygon points="12.6,21.092 11.309,21.092 10.847,18.045 13.152,18.045 "/>
<circle cx="11.968" cy="11.934" r="7.222"/>
<polygon points="17.974,5.113 18.886,6.027 17.059,8.508 15.426,6.876 "/>
<polygon points="5.15,5.997 6.063,5.082 8.544,6.91 6.911,8.542 "/>
<polygon points="18.853,18.002 17.939,18.916 15.459,17.09 17.09,15.459 "/>
<polygon points="5.996,18.852 5.081,17.939 6.909,15.459 8.54,17.09 "/>
</svg>
