<?xml version="1.0" encoding="utf-8"?>
<!-- Generator: Adobe Illustrator 16.0.0, SVG Export Plug-In . SVG Version: 6.00 Build 0)  -->
<!DOCTYPE svg PUBLIC "-//W3C//DTD SVG 1.1//EN" "http://www.w3.org/Graphics/SVG/1.1/DTD/svg11.dtd">
<svg version="1.1" id="Layer_1" xmlns="http://www.w3.org/2000/svg" xmlns:xlink="http://www.w3.org/1999/xlink" x="0px" y="0px"
	 width="24px" height="24px" viewBox="0 0 24 24" enable-background="new 0 0 24 24" xml:space="preserve">
<circle cx="11.943" cy="11.981" r="6.019"/>
<polygon points="11.462,4.423 12.539,4.423 12.924,6.962 11,6.962 "/>
<polygon points="4.426,12.5 4.426,11.422 6.964,11.038 6.964,12.961 "/>
<polygon points="19.576,11.5 19.576,12.576 17.038,12.961 17.038,11.039 "/>
<polygon points="12.5,19.576 11.424,19.576 11.039,17.038 12.961,17.038 "/>
<circle cx="11.973" cy="11.945" r="6.019"/>
<polygon points="16.979,6.261 17.738,7.022 16.216,9.09 14.855,7.73 "/>
<polygon points="6.292,6.997 7.053,6.235 9.12,7.758 7.76,9.118 "/>
<polygon points="17.711,17.002 16.95,17.764 14.883,16.241 16.242,14.882 "/>
<polygon points="6.997,17.71 6.235,16.949 7.758,14.882 9.117,16.241 "/>
</svg>
