<?xml version="1.0" encoding="utf-8"?>
<!-- Generator: Adobe Illustrator 16.0.0, SVG Export Plug-In . SVG Version: 6.00 Build 0)  -->
<!DOCTYPE svg PUBLIC "-//W3C//DTD SVG 1.1//EN" "http://www.w3.org/Graphics/SVG/1.1/DTD/svg11.dtd">
<svg version="1.1" id="Layer_1" xmlns="http://www.w3.org/2000/svg" xmlns:xlink="http://www.w3.org/1999/xlink" x="0px" y="0px"
	 width="24px" height="24px" viewBox="0 0 24 24" enable-background="new 0 0 24 24" xml:space="preserve">
<path fill="#FFFFFF" d="M20.398,1.199H3.6c-1.325,0-2.4,1.075-2.4,2.4v16.799c0,1.326,1.075,2.396,2.4,2.396h16.8
	c1.324,0,2.396-1.07,2.396-2.396V3.6C22.8,2.274,21.725,1.199,20.398,1.199"/>
<path d="M11,13h2v2h-2 M11,9h2v2h-2 M11,17h2c1.104,0,2-0.896,2-2v-1.5c0-0.828-0.672-1.5-1.5-1.5c0.828,0,1.5-0.671,1.5-1.5V9
	c0-1.11-0.9-2-2-2h-2C9.896,7,9,7.896,9,9v1.5c0,0.829,0.671,1.5,1.5,1.5C9.671,12,9,12.672,9,13.5V15C9,16.109,9.9,17,11,17"/>
<path d="M20.398,20.398H3.6V3.6h16.8 M20.398,1.199H3.6c-1.325,0-2.4,1.075-2.4,2.4v16.799c0,1.326,1.075,2.398,2.4,2.398h16.8
	c1.324,0,2.397-1.072,2.397-2.398V3.6C22.8,2.274,21.725,1.199,20.398,1.199"/>
</svg>
